<svg width="40" height="40" viewBox="0 0 40 40" fill="none" xmlns="http://www.w3.org/2000/svg">
<rect width="40" height="40" rx="20" fill="#656565"/>
<path fill-rule="evenodd" clip-rule="evenodd" d="M32.6671 14.1221C31.5494 12.3999 29.3189 11.7846 27.4754 12.689C25.507 13.6897 24.7219 16.0952 25.7197 18.0634C26.2897 19.1852 27.3542 19.9747 28.5931 20.1934C28.4423 24.9377 24.4734 28.6639 19.7268 28.5132C15.1174 28.3674 11.444 24.6102 11.4019 19.9981C11.3945 16.4449 13.6028 13.2647 16.9361 12.0317C17.5766 11.8006 17.9475 11.1298 17.7992 10.4638L17.7893 10.4231C17.6261 9.69413 18.0835 8.9726 18.8106 8.80828C18.8699 8.79592 18.9305 8.78604 18.9911 8.7811C19.3249 8.75021 19.6625 8.73415 20 8.73415C20.4179 8.73415 20.8371 8.75886 21.2513 8.80334C22.003 8.88611 22.6806 8.3425 22.7609 7.59255C22.7646 7.56784 22.7671 7.54066 22.7683 7.51595C22.7881 6.77095 22.2218 6.13961 21.48 6.07784C20.9879 6.02471 20.4933 6 20 6C12.2687 6 6 12.2689 6 20.0006C6 27.7336 12.2687 34 20 34C27.7326 34 34 27.7336 34 20.0006C34 18.6317 33.7243 15.6813 32.6671 14.1221Z" fill="white"/>
<path fill-rule="evenodd" clip-rule="evenodd" d="M25.3316 7.06274C26.1348 7.06274 26.7858 7.7122 26.7858 8.5131C26.7858 9.31399 26.1348 9.96345 25.3316 9.96345C24.5286 9.96345 23.8776 9.31399 23.8776 8.5131C23.8776 7.7122 24.5286 7.06274 25.3316 7.06274Z" fill="white"/>
</svg>
